<?xml version="1.0" encoding="utf-8"?>
<!-- Generator: Adobe Illustrator 23.0.6, SVG Export Plug-In . SVG Version: 6.00 Build 0)  -->
<svg version="1.1" id="Layer_1" xmlns="http://www.w3.org/2000/svg" xmlns:xlink="http://www.w3.org/1999/xlink" x="0px" y="0px"
	 width="218.4250031px" height="100px" viewBox="0 0 218.4250031 100" style="enable-background:new 0 0 218.4250031 100;"
	 xml:space="preserve">
<style type="text/css">
	.st0{fill:#0574A0;}
	.st1{fill:#F45B33;}
	.st2{fill:url(#logo-bar-8_1_);}
	.st3{fill:url(#logo-bar-7_1_);}
	.st4{fill:url(#logo-bar-6_1_);}
	.st5{fill:url(#logo-bar-5_1_);}
	.st6{fill:url(#logo-bar-4_1_);}
	.st7{fill:url(#logo-bar-3_1_);}
	.st8{fill:url(#logo-bar-2_1_);}
	.st9{fill:url(#logo-bar-1_1_);}
	.st10{fill:none;stroke:#F45B33;stroke-width:2;stroke-miterlimit:10;}
</style>
<g id="ETF_1_">
	<path id="logo-etf-e_1_" class="st0" d="M110.0007858,8.2249346h34.1077194v5.9573612h-27.533577v14.7912951h23.8983688v5.9578743
		h-23.8983688v15.2707253h27.528038v5.9573631h-34.1021805V8.2249346z"/>
	<path id="logo-etf-t" class="st0" d="M146.2099762,8.2249346h37.4581909v5.9573612h-15.4764862v41.9772568h-6.5731201V14.1822958
		h-15.4085846V8.2249346z"/>
	<path id="logo-etf-f" class="st0" d="M185.775177,8.2249346h31.2256165l-0.0679016,5.9573612h-24.5835724v15.7501516h22.118515
		v5.9573612h-22.118515v20.2697449h-6.5741425V8.2249346z"/>
</g>
<g id="LOGIC_1_">
	<path id="logo-logic-c_1_" class="st1" d="M208.9740143,91.7763596c-2.1226807,0-4.0793304-0.3800125-5.8133698-1.1294708
		c-1.7359467-0.7504196-3.2358246-1.7839279-4.4593353-3.0746155c-1.2215881-1.2858887-2.1812134-2.8040009-2.8529358-4.5140381
		c-0.6688538-1.7071609-1.0085602-3.528511-1.0085602-5.415123c0-2.0430222,0.3800049-3.966095,1.1285095-5.715477
		c0.7485046-1.7445831,1.7868042-3.2876511,3.0851593-4.5869675c1.300293-1.3002853,2.8308716-2.331871,4.5495453-3.065979
		c1.7215576-0.7360268,3.5928192-1.1093178,5.5609894-1.1093178c1.4106293,0,2.7790527,0.1794472,4.066864,0.5335464
		c1.2935638,0.3579369,2.4201508,0.8483009,3.3490601,1.4576607l0.4135895,0.2715683l-0.2744446,0.4116745
		c-0.1420288,0.2139969-0.2504578,0.3867264-0.3224335,0.5181961c-0.076767,0.1420212-0.2226257,0.3857651-0.4308624,0.7273865
		l-0.2600555,0.4241562l-0.4212799-0.2648544c-0.8415833-0.5287552-1.8031158-0.9337082-2.8596649-1.2014465
		c-1.0632477-0.2677307-2.1351471-0.4039993-3.1840057-0.4039993c-1.632309,0-3.1868896,0.313797-4.6205597,0.9337082
		c-1.4375,0.6218338-2.7022705,1.4854889-3.7597809,2.5669785c-1.0613251,1.0862885-1.91539,2.3664169-2.5372162,3.8058395
		c-0.6199188,1.43367-0.9337158,2.9882507-0.9337158,4.6205597c0,1.538269,0.2782898,3.0275955,0.8262329,4.4257584
		c0.5469818,1.3991165,1.3348236,2.6437454,2.3433838,3.6993179c1.0066376,1.0555801,2.2387848,1.9125214,3.6647797,2.5458679
		c1.4202271,0.6314316,3.0189514,0.9519424,4.7501068,0.9519424c1.3415375,0,2.5909576-0.179451,3.711792-0.5316315
		c1.1217957-0.3531342,2.0603027-0.76577,2.7886505-1.2273483l0.4548645-0.2869263l1.1764832,2.2925262l-0.3809662,0.238945
		c-0.9260254,0.582489-2.0516663,1.0824509-3.3442688,1.4874039
		C212.0764618,91.5700378,210.5938416,91.7763596,208.9740143,91.7763596z"/>
	<rect id="logo-logic-i_1_" x="186.9306488" y="63.471489" class="st1" width="2.5487435" height="27.9987526"/>
	<path id="logo-logic-g_1_" class="st1" d="M173.129425,91.7763596c-2.1716156,0-4.1570587-0.373291-5.9035645-1.1083603
		c-1.7455444-0.7350693-3.2646179-1.7474594-4.5140381-3.0112762c-1.2527771-1.2657394-2.2277527-2.7752151-2.8980408-4.4852524
		c-0.6688538-1.7042847-1.0080719-3.5640182-1.0080719-5.5283585c0-2.019989,0.3867188-3.9373093,1.1486511-5.698204
		c0.7595367-1.7551422,1.8036041-3.304924,3.1029205-4.6042404c1.300293-1.3002853,2.8376007-2.331871,4.5687408-3.065979
		c1.7359467-0.7360268,3.6139221-1.1093178,5.5801697-1.1093178c1.3300323,0,2.6581421,0.1727295,3.9469147,0.5133934
		c1.2849274,0.3416214,2.48349,0.8339081,3.5621033,1.4643784l0.4337463,0.2542953l-1.3185272,2.1361084l-0.4135895-0.2418213
		c-0.8742065-0.5114746-1.869339-0.9183578-2.9565735-1.211998c-1.0834198-0.2917252-2.1908112-0.4404678-3.29245-0.4404678
		c-1.6054382,0-3.1331482,0.313797-4.5409088,0.9327545c-1.4125519,0.6208725-2.6734924,1.4864426-3.7463531,2.5698547
		c-1.0723724,1.0853271-1.9312286,2.3712082-2.5530548,3.8221512c-0.6203918,1.4471054-0.9346619,3.0084-0.9346619,4.6407089
		c0,1.6140747,0.2782745,3.1485062,0.8267059,4.5610657c0.5460205,1.407753,1.3401031,2.6581345,2.3596954,3.7156372
		c1.0191193,1.0546188,2.257019,1.8981171,3.68013,2.5055618c1.4202423,0.6074371,3.0333557,0.9154739,4.7942505,0.9154739
		c0.9778442,0,1.9681702-0.1170731,2.9441071-0.3483429c0.8751678-0.2082367,1.7109985-0.5124359,2.4873199-0.9077988v-7.1606674
		h-6.2288666v-2.3587341h8.7018127v11.1315613l-0.2466278,0.1420212c-1.046936,0.6026382-2.2301483,1.0882034-3.5150757,1.4432602
		C175.9113617,91.5969086,174.5429382,91.7763596,173.129425,91.7763596z"/>
	<path id="logo-logic-o_1_" class="st1" d="M141.2605438,91.7763596c-1.9715424,0-3.844223-0.3800125-5.5662689-1.1304321
		c-1.7191467-0.748497-3.2362976-1.7800903-4.5087585-3.065979c-1.2714844-1.2839661-2.2953949-2.8059158-3.0434265-4.5245895
		c-0.749939-1.7234726-1.1299438-3.5956879-1.1299438-5.5648193c0-1.9691391,0.3800049-3.8413544,1.1299438-5.5657806
		c0.7470703-1.7167587,1.7704926-3.2444687,3.0419922-4.5418701c1.272934-1.3002853,2.7905579-2.3385849,4.5101929-3.0870895
		c1.7244415-0.7504196,3.5971375-1.1304283,5.5662689-1.1304283c1.9676971,0,3.8456573,0.3800087,5.5825653,1.129467
		c1.7321167,0.7485046,3.2684631,1.7858505,4.5658569,3.0842133c1.2983704,1.2983627,2.3361969,2.8279877,3.0837402,4.5457077
		c0.749939,1.7244263,1.1299438,3.5966415,1.1299438,5.5657806c0,1.9691315-0.3800049,3.8413467-1.1299438,5.5648193
		c-0.7485046,1.719635-1.7868042,3.2435074-3.0856476,4.5284348c-1.2964478,1.2839661-2.8318329,2.3145905-4.5639496,3.0630951
		C145.1086121,91.396347,143.2301483,91.7763596,141.2605438,91.7763596z M141.2989197,65.6776505
		c-1.6068726,0-3.1417847,0.3137894-4.5625,0.9327469c-1.4255066,0.6218338-2.6849976,1.4797287-3.7439423,2.5506592
		c-1.060379,1.0728531-1.9062805,2.3395462-2.514679,3.7636185s-0.9169159,2.9728928-0.9169159,4.6032867
		c0,1.6063995,0.3085175,3.1417847,0.9169159,4.5648956c0.6083984,1.4250336,1.4538269,2.6840515,2.5127563,3.7434692
		c1.059906,1.0594177,2.3083649,1.9125214,3.711319,2.5343475c1.3943329,0.6179962,2.9148407,0.9317932,4.5202789,0.9317932
		c1.6059265,0,3.1475525-0.313797,4.5816956-0.9337082c1.4394226-0.6227951,2.7128448-1.4749374,3.784729-2.5343552
		c1.0709381-1.0594101,1.929306-2.3193893,2.5506592-3.7453842c0.6203918-1.4202347,0.9346771-2.9671326,0.9346771-4.5984802
		c0-1.6073608-0.3147583-3.1485062-0.9351501-4.5821762c-0.6218414-1.4384689-1.4739685-2.705162-2.5329132-3.7645798
		c-1.0584564-1.0584564-2.3189087-1.9105988-3.7458649-2.5333862
		C144.43927,65.9914398,142.9048462,65.6776505,141.2989197,65.6776505z"/>
	<polygon id="logo-logic-l_1_" class="st1" points="110.0062866,91.4702377 110.0062866,63.471489 112.5934143,63.471489 
		112.5934143,88.9589233 127.5730362,88.9589233 127.5730362,91.4702377 	"/>
</g>
<g id="bars_5_">
	
		<linearGradient id="logo-bar-8_1_" gradientUnits="userSpaceOnUse" x1="89.0145645" y1="39.8621559" x2="89.0145645" y2="82.6447372">
		<stop  offset="0" style="stop-color:#1BCAD9"/>
		<stop  offset="1" style="stop-color:#01537C"/>
	</linearGradient>
	<path id="logo-bar-8" class="st2" d="M93.0040359,69.8417587l0.0105286-29.975975l-7.9823074-0.0036278l-0.0176926,42.7825813
		C88.6243973,78.0190964,91.4077072,74.1521149,93.0040359,69.8417587z"/>
	
		<linearGradient id="logo-bar-7_1_" gradientUnits="userSpaceOnUse" x1="78.0102386" y1="61.4827881" x2="78.0102386" y2="91.607666">
		<stop  offset="0" style="stop-color:#1BCAD9"/>
		<stop  offset="1" style="stop-color:#01537C"/>
	</linearGradient>
	<path id="logo-bar-7" class="st3" d="M74.0189667,61.4827881L74.0140152,91.607666
		c2.9594421-1.6040955,6.1972733-3.9888306,7.9906845-5.5986328l0.0017624-24.5225143L74.0189667,61.4827881z"/>
	
		<linearGradient id="logo-bar-6_1_" gradientUnits="userSpaceOnUse" x1="66.9908447" y1="14.6160631" x2="66.9908447" y2="96.3108749">
		<stop  offset="0" style="stop-color:#1BCAD9"/>
		<stop  offset="1" style="stop-color:#01537C"/>
	</linearGradient>
	<path id="logo-bar-6" class="st4" d="M62.9908409,14.6160631l0.0021896,81.694809
		c2.8791084-0.9812927,5.2619286-2.0954742,7.997509-3.6688309l0.0003052-78.0259781H62.9908409z"/>
	
		<linearGradient id="logo-bar-5_1_" gradientUnits="userSpaceOnUse" x1="56.0068359" y1="39.8621559" x2="56.0068359" y2="97.9808273">
		<stop  offset="0" style="stop-color:#1BCAD9"/>
		<stop  offset="1" style="stop-color:#01537C"/>
	</linearGradient>
	<path id="logo-bar-5" class="st5" d="M52.0295372,39.8621559l-0.0223274,58.1186714
		c2.7118874-0.0716553,5.3901482-0.3665085,7.9773407-0.9623184l0.0219154-57.1525726L52.0295372,39.8621559z"/>
	
		<linearGradient id="logo-bar-4_1_" gradientUnits="userSpaceOnUse" x1="45.0070381" y1="61.4827881" x2="45.0070381" y2="97.9808273">
		<stop  offset="0" style="stop-color:#1BCAD9"/>
		<stop  offset="1" style="stop-color:#01537C"/>
	</linearGradient>
	<path id="logo-bar-4" class="st6" d="M41.0211639,61.4827881l-0.0135536,35.5470886
		c3.8174362,0.8050537,6.9770508,0.9039307,7.9847374,0.9509506l0.0141182-36.4942093L41.0211639,61.4827881z"/>
	
		<linearGradient id="logo-bar-3_1_" gradientUnits="userSpaceOnUse" x1="34.0069542" y1="51.5163727" x2="34.0069542" y2="96.2948303">
		<stop  offset="0" style="stop-color:#1BCAD9"/>
		<stop  offset="1" style="stop-color:#01537C"/>
	</linearGradient>
	<path id="logo-bar-3" class="st7" d="M30.0207653,51.5163727l-0.0133228,41.748909
		c1.75984,0.9061737,5.2379723,2.3361359,7.984745,3.0295486l0.0142784-44.7747574L30.0207653,51.5163727z"/>
	
		<linearGradient id="logo-bar-2_1_" gradientUnits="userSpaceOnUse" x1="22.9172211" y1="39.8621559" x2="22.9172211" y2="91.547905">
		<stop  offset="0" style="stop-color:#1BCAD9"/>
		<stop  offset="1" style="stop-color:#01537C"/>
	</linearGradient>
	<path id="logo-bar-2" class="st8" d="M18.935873,39.8621559L18.9180546,85.550621
		c2.1963005,2.0521011,5.4076424,4.552597,7.9794197,5.9972839l0.0189133-51.6818695L18.935873,39.8621559z"/>
	
		<linearGradient id="logo-bar-1_1_" gradientUnits="userSpaceOnUse" x1="11.9854364" y1="65.7050323" x2="11.9854364" y2="82.6480408">
		<stop  offset="0" style="stop-color:#1BCAD9"/>
		<stop  offset="1" style="stop-color:#01537C"/>
	</linearGradient>
	<path id="logo-bar-1" class="st9" d="M7.9872046,65.7050323L7.985436,73.2680664
		c1.9595189,3.2033539,5.5956454,7.6589661,8,9.3799744V65.7050323H7.9872046z"/>
</g>
<g id="strokes_6_">
	<line id="logo-line-4" class="st10" x1="94.120697" y1="32.5373306" x2="67.0706177" y2="46.9218521"/>
	<line id="logo-line-3" class="st10" x1="45.0003014" y1="35.3499985" x2="66.8562927" y2="46.922924"/>
	<line id="logo-line-2" class="st10" x1="45.0003014" y1="35.3499985" x2="22.8948956" y2="71.8655777"/>
	<line id="logo-line-1" class="st10" x1="3.2123353" y1="52.5865173" x2="22.8948956" y2="71.8655777"/>
</g>
<g id="dots_6_">
	<circle id="logo-dot-4" class="st1" cx="66.8562927" cy="46.922924" r="4.5"/>
	<circle id="logo-dot-3" class="st1" cx="45.0003014" cy="35.3499985" r="4.5"/>
	<circle id="logo-dot-2" class="st1" cx="22.8948956" cy="71.8655777" r="5"/>
</g>
<g id="logo-circle">
	<path id="logo-circle_1_" class="st1" d="M50.5,3.8499999c25.5023422,0,46.25,20.7476597,46.25,46.25
		s-20.7476578,46.25-46.25,46.25s-46.25-20.7476578-46.25-46.25S24.9976597,3.8499999,50.5,3.8499999 M50.5,1.1
		c-27.0186996,0-49,21.9813004-49,49s21.9813004,49,49,49s49-21.9813004,49-49S77.5186996,1.1,50.5,1.1L50.5,1.1z"/>
</g>
</svg>
