<!-- <svg width="700" height="400" aria-label="A chart." style="overflow: hidden; display: block; transform-origin: 0 0;" id="main_svg_chart"> -->
<svg aria-hidden="true" role="img" xmlns="http://www.w3.org/2000/svg" viewBox="0 0 700 400">
    <defs id="defs">
        <clipPath id="_ABSTRACT_RENDERER_ID_1">
            <rect x="30" y="20" width="657" height="320"></rect>
        </clipPath>
    </defs>
    <rect x="0" y="0" width="730" height="400" stroke="none" stroke-width="0" fill="#ffffff"></rect>
    <g>
        <rect x="328" y="374" width="61" height="13" stroke="none" stroke-width="0" fill-opacity="0" fill="#ffffff"></rect>
        <g>
            <rect x="328" y="374" width="61" height="13" stroke="none" stroke-width="0" fill-opacity="0" fill="#ffffff"></rect>
            <g>
                <text text-anchor="start" x="359" y="385.05" font-family="Arial" font-size="13" stroke="none" stroke-width="0" fill="#222222">Price</text>
            </g>
            <path d="M328,380.5L354,380.5" stroke="#3366cc" stroke-width="2" fill-opacity="1" fill="none"></path>
        </g>
    </g>
    <g>
        <rect x="30" y="20" width="657" height="320" stroke="none" stroke-width="0" fill-opacity="0" fill="#ffffff"></rect>
        <g>
            <g>
                <rect x="155" y="20" width="1" height="320" stroke="none" stroke-width="0" fill="#cccccc"></rect>
                <rect x="323" y="20" width="1" height="320" stroke="none" stroke-width="0" fill="#cccccc"></rect>
                <rect x="486" y="20" width="1" height="320" stroke="none" stroke-width="0" fill="#cccccc"></rect>
                <rect x="651" y="20" width="1" height="320" stroke="none" stroke-width="0" fill="#cccccc"></rect>
                <rect x="30" y="339" width="657" height="1" stroke="none" stroke-width="0" fill="#cccccc"></rect>
                <rect x="30" y="259" width="657" height="1" stroke="none" stroke-width="0" fill="#cccccc"></rect>
                <rect x="30" y="180" width="657" height="1" stroke="none" stroke-width="0" fill="#cccccc"></rect>
                <rect x="30" y="100" width="657" height="1" stroke="none" stroke-width="0" fill="#cccccc"></rect>
                <rect x="30" y="20" width="657" height="1" stroke="none" stroke-width="0" fill="#cccccc"></rect>
            </g>
            <g>
                <path d="M30.5,239.92415000000003L32.31717451523546,227.77025000000003L34.134349030470915,234.43336250000007L35.95152354570637,239.92415000000003L37.76869806094183,239.92415000000003L43.220221606648195,232.86627500000003L45.03739612188366,224.23732500000003L46.85457063711911,224.23732500000003L48.671745152354575,227.77025000000003L50.488919667590025,221.10314999999997L55.9404432132964,222.67023749999998L57.757617728531855,225.4136375L59.57479224376731,225.4136375L61.39196675900277,243.06231249999993L63.20914127423823,246.98202500000002L68.6606648199446,233.65181250000006L70.47783933518005,232.86627500000003L72.29501385041551,234.828125L74.11218836565098,251.68727499999994L75.92936288088643,251.2965L81.3808864265928,254.0399L83.19806094182826,243.4530875L85.01523545706371,246.59125000000006L86.83240997229916,246.59125000000006L88.64958448753463,243.84784999999994L94.10110803324099,250.12018750000004L95.91828254847645,253.25834999999995L97.7354570637119,249.33465000000007L99.55263157894737,248.15833749999996L101.36980609418282,245.41493749999998L108.63850415512465,266.1977875L110.45567867036011,263.84516249999996L112.27285318559557,280.31353749999994L114.09002770083103,271.68857499999996L119.5415512465374,255.22019999999992L121.35872576177286,243.84784999999994L123.17590027700831,242.27677500000007L124.99307479224376,244.238625L126.81024930747922,241.35566249999994L132.2617728531856,229.93546250000009L134.07894736842104,222.45491249999992L135.89612188365652,216.54543749999996L137.71329639889197,214.18483749999996L139.53047091412742,215.36513750000003L144.9819944598338,216.54543749999996L146.79916897506925,216.94020000000003L148.6163434903047,204.7344625L150.43351800554018,203.1594L152.25069252077563,198.43421249999997L157.70221606648198,189.76937500000005L159.51939058171746,186.22448749999995L161.3365650969529,190.94967499999998L163.15373961218836,180.31899999999996L164.9709141274238,179.13870000000003L170.4224376731302,183.07436250000006L172.23961218836564,178.34917500000003L174.05678670360112,180.31899999999996L175.87396121883657,188.19431250000002L177.69113573407202,187.79954999999995L183.1426592797784,181.10852499999996L184.95983379501385,186.22448749999995L186.7770083102493,180.71376250000003L188.59418282548475,179.92423750000003L190.41135734072023,167.7185L195.86288088642658,168.5040375L197.68005540166206,161.02348750000002L199.4972299168975,167.32373749999994L201.31440443213296,161.41824999999994L203.1315789473684,162.20378749999998L208.5831024930748,166.53820000000007L210.40027700831024,169.2935625L212.21745152354572,167.7185L214.03462603878117,157.8733625L215.85180055401662,162.20378749999998L221.37903970452447,163.38807500000004L223.19621421975992,177.95839999999995L225.01338873499537,183.07436250000006L226.83056325023085,186.61925000000002L228.6477377654663,189.76937500000005L234.09926131117265,188.19431250000002L235.91643582640813,188.58907499999995L237.73361034164358,185.8337125L239.55078485687903,185.43894999999992L241.36795937211448,186.61925000000002L246.81948291782086,181.8940625L248.6366574330563,178.74393749999996L250.4538319482918,183.86388750000006L254.0881809787627,184.25865L259.5397045244691,185.0441875L261.3568790397045,158.26812499999994L263.17405355494,140.15291249999993L264.99122807017545,133.067125L266.80840258541093,130.7025375L272.25992613111725,114.16238750000002L274.07710064635273,120.07186249999998L275.8942751615882,124.00752500000002L277.71144967682363,120.46263750000006L279.52862419205906,113.77161249999995L284.9801477377655,116.52697500000002L286.7973222530009,105.50153749999996L288.6144967682364,119.28233749999998L290.4316712834718,126.37211250000004L292.2488457987073,116.5947625L297.7003693444137,106.70576249999996L299.5175438596491,111.45487499999996L301.3347183748846,113.43267500000002L303.15189289012005,103.93843750000005L304.9690674053555,107.10052500000003L312.23776546629733,110.26660000000004L314.05493998153275,109.07832499999998L315.87211449676823,104.72796250000005L317.6892890120037,112.63916250000003L324.9579870729455,112.24439999999996L326.775161588181,106.31100000000004L328.5923361034164,96.02324999999993L330.4095106186519,92.86116249999995L335.8610341643583,94.44419999999994L337.6782086795937,85.73948749999997L339.4953831948292,76.24525L341.31255771006465,70.7066125L343.1297322253001,60.42285000000004L350.39843028624193,63.584937500000024L352.21560480147735,54.88421250000005L354.03277931671283,56.467250000000035L355.8499538319483,48.15730000000002L361.30147737765463,38.663062500000024L363.1186518928901,37.47877499999993L364.9358264081256,29.563587499999983L366.753000923361,31.94013749999999L368.5701754385965,23.23542500000002L374.0216989843029,27.980549999999994L375.8388734995383,43.41217499999999L377.6560480147738,40.24610000000001L379.47322253000925,29.168825000000027L381.2903970452447,55.278975L386.74192059095105,113.82743749999995L388.55909510618653,93.65068749999995L390.37626962142195,92.86116249999995L392.19344413665743,142.31015000000002L394.0106186518929,121.73863750000007L399.46214219759923,106.31100000000004L401.2793167128347,101.56188750000007L403.0964912280702,75.05697500000008L404.9136657433056,68.72881249999995L406.7308402585411,70.31184999999994L413.9995383194829,73.87268749999998L415.8167128347184,72.28965L417.63388734995385,81.78388749999999L419.4510618651893,64.77321249999994L424.90258541089565,47.367774999999995L426.71975992613113,58.44504999999998L428.53693444136655,74.66221250000001L430.35410895660203,94.44419999999994L432.1712834718375,91.6728875L437.62280701754383,75.85048750000004L439.4399815327793,71.10137499999996L441.2571560480148,73.07917500000002L443.0743305632502,69.51833749999992L444.8915050784857,41.8291375L450.2673130193906,45.784737500000006L452.084487534626,58.83981250000005L453.9016620498615,71.8948875000001L455.718836565097,71.49613750000003L457.5360110803324,70.5231875L462.9875346260388,78.86104999999998L464.80470914127426,76.08176249999997L466.6218836565097,76.47652500000004L468.43905817174516,118.56458749999996L470.2562326869806,151.91205000000002L475.70775623268696,117.37232500000005L477.52493074792244,138.81311249999993L479.3421052631579,136.82733750000003L481.15927977839334,122.13738749999999L488.4279778393352,146.35746250000005L490.2451523545706,131.66352500000002L492.0623268698061,120.15161249999994L493.8795013850415,111.41500000000005L495.696675900277,138.01959999999994L501.1481994459834,132.06227499999994L502.96537396121886,115.78530000000006L504.7825484764543,128.88423749999998L506.59972299168976,109.82797500000007L508.4168975069252,126.50370000000001L513.8684210526316,121.73863750000007L515.685595567867,121.73863750000007L517.5027700831025,126.90244999999993L519.319944598338,110.22672499999999L521.1371191135734,109.82797500000007L526.5886426592798,111.02023749999998L528.4058171745153,118.16583750000004L530.2229916897506,118.95935000000003L532.0401662049861,118.56458749999996L533.8573407202216,116.97357499999998L539.3088642659279,126.90244999999993L541.1260387811635,126.50370000000001L542.9432132963989,138.81311249999993L544.7603878116344,147.94448750000004L546.5775623268698,134.04805L552.0290858725762,126.90244999999993L553.8462603878116,119.35809999999995L555.6634349030471,103.08112500000007L557.4806094182826,93.94576249999997L559.297783933518,94.74326249999993L564.7493074792244,95.53677499999992L566.5664819944599,97.52255L568.3836565096952,95.53677499999992L570.2008310249307,97.91731250000007L572.0180055401662,107.04868750000003L577.4695290858725,99.10957499999998L579.286703601108,91.56522499999997L581.1038781163435,98.71082500000006L582.921052631579,107.44743749999995L584.7382271468144,111.02023749999998L592.0069252077562,147.94448750000004L593.8240997229917,128.48947500000006L595.6412742382272,137.62085000000002L597.4584487534626,125.71018750000002L602.909972299169,122.13738749999999L604.7271468144045,126.90244999999993L606.5443213296398,107.04868750000003L608.3614958448753,103.4758875L610.1786703601108,101.88886250000002L615.6301939058171,104.26939999999999L617.4473684210526,107.04868750000003L619.2645429362881,111.02023749999998L621.0817174515236,121.343875L622.898891966759,121.38375000000005L628.3504155124654,123.37749999999994L630.1675900277008,126.16874999999993L631.9847645429363,128.95999999999995L633.8019390581718,132.15000000000003L635.6191135734072,137.33374999999998L641.0706371191136,148.89749999999995L642.8878116343491,152.48624999999996L644.7049861495844,165.645L646.5221606648199,156.47375L648.3393351800554,156.47375L653.7908587257617,151.29000000000005L655.6080332409972,160.85999999999999L659.2423822714682,158.46750000000003L661.0595567867036,153.28374999999994L666.51108033241,128.95999999999995L668.3282548476454,132.94750000000002L670.1454293628809,138.13124999999997L671.9626038781163,136.13749999999993L673.7797783933518,140.92249999999999L679.2313019390582,121.78249999999997L681.0484764542937,120.58625000000006L682.865650969529,103.04125000000002L684.6828254847645,119.78874999999994L686.5,117.79500000000004" stroke="#3366cc" stroke-width="2" fill-opacity="1" fill="none"></path>
            </g>
        </g>
        <g></g>
        <g>
            <g>
                <text text-anchor="middle" x="155.88504155124653" y="359.05" font-family="Arial" font-size="13" stroke="none" stroke-width="0" fill="#444444">Oct 2017</text>
            </g>
            <g>
                <text text-anchor="middle" x="323.14081255771003" y="359.05" font-family="Arial" font-size="13" stroke="none" stroke-width="0" fill="#444444">Jan 2018</text>
            </g>
            <g>
                <text text-anchor="middle" x="486.6108033240997" y="359.05" font-family="Arial" font-size="13" stroke="none" stroke-width="0" fill="#444444">Apr 2018</text>
            </g>
            <g>
                <text text-anchor="middle" x="651.9736842105264" y="359.05" font-family="Arial" font-size="13" stroke="none" stroke-width="0" fill="#444444">Jul 2018</text>
            </g>
            <g>
                <text text-anchor="end" x="22" y="344.05" font-family="Arial" font-size="13" stroke="none" stroke-width="0" fill="#444444">22</text>
            </g>
            <g>
                <text text-anchor="end" x="22" y="264.3" font-family="Arial" font-size="13" stroke="none" stroke-width="0" fill="#444444">24</text>
            </g>
            <g>
                <text text-anchor="end" x="22" y="184.55" font-family="Arial" font-size="13" stroke="none" stroke-width="0" fill="#444444">26</text>
            </g>
            <g>
                <text text-anchor="end" x="22" y="104.8" font-family="Arial" font-size="13" stroke="none" stroke-width="0" fill="#444444">28</text>
            </g>
            <g>
                <text text-anchor="end" x="22" y="25.05" font-family="Arial" font-size="13" stroke="none" stroke-width="0" fill="#444444">30</text>
            </g>
        </g>
    </g>
    <g></g>
</svg>